<mxfile host="app.diagrams.net" agent="Mozilla/5.0 (Windows NT 10.0; Win64; x64) AppleWebKit/537.36 (KHTML, like Gecko) Chrome/139.0.0.0 Safari/537.36" version="28.2.4">
  <diagram name="Página-1" id="NsvOcMbgNCAqdCPnq3sT">
    <mxGraphModel dx="872" dy="473" grid="1" gridSize="10" guides="1" tooltips="1" connect="1" arrows="1" fold="1" page="1" pageScale="1" pageWidth="827" pageHeight="1169" math="0" shadow="0">
      <root>
        <mxCell id="0" />
        <mxCell id="1" parent="0" />
        <mxCell id="8Gm1ZcirGFJTw-mWqJaS-26" value="" style="edgeStyle=orthogonalEdgeStyle;rounded=0;orthogonalLoop=1;jettySize=auto;html=1;" edge="1" parent="1" source="8Gm1ZcirGFJTw-mWqJaS-1" target="8Gm1ZcirGFJTw-mWqJaS-18">
          <mxGeometry relative="1" as="geometry" />
        </mxCell>
        <mxCell id="8Gm1ZcirGFJTw-mWqJaS-1" value="Início" style="ellipse;whiteSpace=wrap;html=1;fillColor=light-dark(#FFFFFF,#AA4646);" vertex="1" parent="1">
          <mxGeometry x="354" y="30" width="120" height="80" as="geometry" />
        </mxCell>
        <mxCell id="8Gm1ZcirGFJTw-mWqJaS-10" value="Fim" style="ellipse;whiteSpace=wrap;html=1;fillColor=light-dark(#FFFFFF,#265028);gradientColor=none;" vertex="1" parent="1">
          <mxGeometry x="353" y="860" width="120" height="80" as="geometry" />
        </mxCell>
        <mxCell id="8Gm1ZcirGFJTw-mWqJaS-27" value="" style="edgeStyle=orthogonalEdgeStyle;rounded=0;orthogonalLoop=1;jettySize=auto;html=1;" edge="1" parent="1" source="8Gm1ZcirGFJTw-mWqJaS-18" target="8Gm1ZcirGFJTw-mWqJaS-19">
          <mxGeometry relative="1" as="geometry" />
        </mxCell>
        <mxCell id="8Gm1ZcirGFJTw-mWqJaS-18" value="Soma = 0" style="rounded=0;whiteSpace=wrap;html=1;" vertex="1" parent="1">
          <mxGeometry x="354" y="160" width="120" height="60" as="geometry" />
        </mxCell>
        <mxCell id="8Gm1ZcirGFJTw-mWqJaS-28" value="" style="edgeStyle=orthogonalEdgeStyle;rounded=0;orthogonalLoop=1;jettySize=auto;html=1;" edge="1" parent="1" source="8Gm1ZcirGFJTw-mWqJaS-19" target="8Gm1ZcirGFJTw-mWqJaS-20">
          <mxGeometry relative="1" as="geometry" />
        </mxCell>
        <mxCell id="8Gm1ZcirGFJTw-mWqJaS-19" value="Ler Quantosqueres" style="shape=parallelogram;perimeter=parallelogramPerimeter;whiteSpace=wrap;html=1;fixedSize=1;" vertex="1" parent="1">
          <mxGeometry x="335" y="260" width="156" height="80" as="geometry" />
        </mxCell>
        <mxCell id="8Gm1ZcirGFJTw-mWqJaS-29" value="" style="edgeStyle=orthogonalEdgeStyle;rounded=0;orthogonalLoop=1;jettySize=auto;html=1;" edge="1" parent="1" source="8Gm1ZcirGFJTw-mWqJaS-20" target="8Gm1ZcirGFJTw-mWqJaS-21">
          <mxGeometry relative="1" as="geometry" />
        </mxCell>
        <mxCell id="8Gm1ZcirGFJTw-mWqJaS-20" value="Ler Numero" style="shape=parallelogram;perimeter=parallelogramPerimeter;whiteSpace=wrap;html=1;fixedSize=1;" vertex="1" parent="1">
          <mxGeometry x="354" y="380" width="120" height="60" as="geometry" />
        </mxCell>
        <mxCell id="8Gm1ZcirGFJTw-mWqJaS-30" value="" style="edgeStyle=orthogonalEdgeStyle;rounded=0;orthogonalLoop=1;jettySize=auto;html=1;" edge="1" parent="1" source="8Gm1ZcirGFJTw-mWqJaS-21" target="8Gm1ZcirGFJTw-mWqJaS-22">
          <mxGeometry relative="1" as="geometry" />
        </mxCell>
        <mxCell id="8Gm1ZcirGFJTw-mWqJaS-21" value="Soma = Soma + Numero&lt;div&gt;Quantosqueres =&lt;/div&gt;&lt;div&gt;Quantosqueres - 1&lt;/div&gt;" style="rounded=0;whiteSpace=wrap;html=1;" vertex="1" parent="1">
          <mxGeometry x="330" y="490" width="166" height="70" as="geometry" />
        </mxCell>
        <mxCell id="8Gm1ZcirGFJTw-mWqJaS-23" style="edgeStyle=orthogonalEdgeStyle;rounded=0;orthogonalLoop=1;jettySize=auto;html=1;entryX=1;entryY=0.5;entryDx=0;entryDy=0;" edge="1" parent="1" source="8Gm1ZcirGFJTw-mWqJaS-22" target="8Gm1ZcirGFJTw-mWqJaS-20">
          <mxGeometry relative="1" as="geometry">
            <Array as="points">
              <mxPoint x="560" y="655" />
              <mxPoint x="560" y="410" />
            </Array>
          </mxGeometry>
        </mxCell>
        <mxCell id="8Gm1ZcirGFJTw-mWqJaS-24" value="Não" style="edgeLabel;html=1;align=center;verticalAlign=middle;resizable=0;points=[];" vertex="1" connectable="0" parent="8Gm1ZcirGFJTw-mWqJaS-23">
          <mxGeometry x="-0.8049" y="-1" relative="1" as="geometry">
            <mxPoint as="offset" />
          </mxGeometry>
        </mxCell>
        <mxCell id="8Gm1ZcirGFJTw-mWqJaS-31" value="" style="edgeStyle=orthogonalEdgeStyle;rounded=0;orthogonalLoop=1;jettySize=auto;html=1;" edge="1" parent="1" source="8Gm1ZcirGFJTw-mWqJaS-22" target="8Gm1ZcirGFJTw-mWqJaS-25">
          <mxGeometry relative="1" as="geometry" />
        </mxCell>
        <mxCell id="8Gm1ZcirGFJTw-mWqJaS-32" value="Sim" style="edgeLabel;html=1;align=center;verticalAlign=middle;resizable=0;points=[];" vertex="1" connectable="0" parent="8Gm1ZcirGFJTw-mWqJaS-31">
          <mxGeometry x="-0.16" y="1" relative="1" as="geometry">
            <mxPoint as="offset" />
          </mxGeometry>
        </mxCell>
        <mxCell id="8Gm1ZcirGFJTw-mWqJaS-22" value="Quantosqueres = 0" style="rhombus;whiteSpace=wrap;html=1;" vertex="1" parent="1">
          <mxGeometry x="337" y="610" width="154" height="90" as="geometry" />
        </mxCell>
        <mxCell id="8Gm1ZcirGFJTw-mWqJaS-33" value="" style="edgeStyle=orthogonalEdgeStyle;rounded=0;orthogonalLoop=1;jettySize=auto;html=1;" edge="1" parent="1" source="8Gm1ZcirGFJTw-mWqJaS-25" target="8Gm1ZcirGFJTw-mWqJaS-10">
          <mxGeometry relative="1" as="geometry" />
        </mxCell>
        <mxCell id="8Gm1ZcirGFJTw-mWqJaS-25" value="Escrever Soma" style="shape=parallelogram;perimeter=parallelogramPerimeter;whiteSpace=wrap;html=1;fixedSize=1;" vertex="1" parent="1">
          <mxGeometry x="354" y="750" width="120" height="60" as="geometry" />
        </mxCell>
      </root>
    </mxGraphModel>
  </diagram>
</mxfile>
